<svg width="102" height="20" viewBox="0 0 102 20" fill="none" xmlns="http://www.w3.org/2000/svg"><path d="M1.79 17.5a7.25 7.25 0 0 1-1.2-4.52V6.47C.46 4.86.88 3.26 1.76 1.9 2.57.88 3.93.36 5.87.37c1.92 0 3.23.46 3.91 1.36a5.88 5.88 0 0 1 1.15 3.9v1.53H7.36V5.5c0-.43-.04-.87-.1-1.3-.05-.31-.2-.6-.41-.83a1.34 1.34 0 0 0-1-.32 1.25 1.25 0 0 0-1.29.65 4.8 4.8 0 0 0-.29 1.92v8.27c-.04.65.08 1.3.34 1.91a1.28 1.28 0 0 0 1.25.63 1.15 1.15 0 0 0 1.2-.64c.21-.61.3-1.26.27-1.9v-1.74h3.56v1.5a6.34 6.34 0 0 1-1.05 4.01c-.76.96-2.07 1.42-3.93 1.42-1.86 0-3.32-.52-4.12-1.59ZM15.79.62h4.08l3.45 18.25h-3.4l-.6-4.03h-2.87l-.69 4h-3.44L15.79.62Zm3.14 11.92-1.08-7.33-1.08 7.33h2.16ZM25.96 3.37h-2.79V.62h9.23v2.75h-2.75v15.47h-3.7l.01-15.47Z" fill="#111"/><path d="M39.65.62h7v1.9h-4.48v6.02h3.64v1.8h-3.64v6.68h4.53v1.82h-7.05V.62ZM48.73.62h1.72l5.17 12.1V.62h2.1v18.25h-1.6L50.93 6.42v12.42h-2.13L48.73.62ZM60.5.62h7v1.9h-4.48v6.02h3.67v1.8h-3.64v6.68h4.5v1.82h-7.04V.62ZM69.58.62h3.63a6 6 0 0 1 4.02 1.14c.86.75 1.29 1.99 1.29 3.7 0 2.32-.75 3.73-2.23 4.25l2.58 9.13h-2.45l-2.36-8.55H72.1v8.55h-2.52V.62Zm3.44 7.82c.83.08 1.66-.15 2.33-.66a3.11 3.11 0 0 0 .7-2.35 5.12 5.12 0 0 0-.25-1.74 1.64 1.64 0 0 0-.86-.94 4.07 4.07 0 0 0-1.76-.3h-1.11v6.03l.95-.04ZM81.91 17.5a8.1 8.1 0 0 1-1.1-4.65V6.76c-.02-1.17.12-2.34.44-3.47a3.9 3.9 0 0 1 1.5-2.1 5.06 5.06 0 0 1 2.9-.73 4.5 4.5 0 0 1 3.6 1.29 6.12 6.12 0 0 1 1.1 4.02v.68h-2.37V5.9c.01-.68-.04-1.36-.16-2.02-.08-.43-.31-.8-.65-1.07a2.57 2.57 0 0 0-1.49-.36 2.16 2.16 0 0 0-1.55.5c-.36.33-.6.79-.67 1.28-.1.71-.16 1.44-.14 2.16v6.77c-.07 1.03.1 2.06.5 3a2.44 2.44 0 0 0 3.01.65c.34-.18.62-.42.84-.72.42-1 .6-2.09.53-3.17v-1.29h-2.3v-1.8h4.57v9.02h-1.56l-.25-2.1a3.2 3.2 0 0 1-3.2 2.33 3.98 3.98 0 0 1-3.55-1.58ZM95.71 12.41 91.81.62h2.34l2.77 8.8 2.72-8.8H102l-3.88 11.8v6.42h-2.41v-6.43Z" fill="#444"/></svg>